<svg width="143" height="94" viewBox="0 0 143 94" fill="none" xmlns="http://www.w3.org/2000/svg">
<g clip-path="url(#clip0_0_465)">
<path d="M37.3584 55.0714L44.3386 44.2099H38.1853C38.1332 43.897 38.1108 43.5544 38.1108 43.1744C38.1108 42.8094 38.1332 42.4742 38.1853 42.1688H48.1453L48.272 42.504L41.2396 53.3878H47.8325C47.8846 53.7305 47.907 54.088 47.907 54.4456C47.907 54.7883 47.8846 55.1161 47.8325 55.4289H37.485L37.3584 55.0714Z" fill="#4C4C4D"/>
<path d="M57.502 46.6908C57.502 45.6702 57.2413 44.9699 56.7273 44.5677C56.2132 44.1728 55.4608 43.9717 54.4775 43.9717C53.8741 43.9717 53.3079 44.0164 52.7865 44.1132C52.2575 44.2101 51.751 44.3293 51.2444 44.4857C50.9166 43.9195 50.7527 43.2342 50.7527 42.4445C51.3412 42.2583 51.9819 42.1093 52.6896 42.005C53.3973 41.9007 54.0752 41.8486 54.7308 41.8486C56.4516 41.8486 57.7628 42.2434 58.6642 43.0256C59.5581 43.8078 60.0125 45.0668 60.0125 46.7876V55.0864C59.4091 55.2205 58.6791 55.3695 57.8149 55.511C56.9508 55.66 56.0717 55.7271 55.1778 55.7271C54.336 55.7271 53.5687 55.6526 52.8908 55.4961C52.2128 55.3397 51.6318 55.0939 51.155 54.7437C50.6782 54.4011 50.3132 53.9615 50.0525 53.4252C49.7917 52.8888 49.6651 52.2407 49.6651 51.4883C49.6651 50.7508 49.8141 50.0952 50.1195 49.5365C50.4175 48.9778 50.8272 48.5085 51.3487 48.1434C51.8627 47.771 52.4587 47.4953 53.1366 47.3165C53.807 47.1377 54.5148 47.0409 55.2597 47.0409C55.811 47.0409 56.2654 47.0558 56.6155 47.0781C56.9657 47.1005 57.2636 47.1377 57.5095 47.1675V46.6908H57.502ZM57.502 49.2013C57.2413 49.164 56.9135 49.1342 56.5187 49.097C56.1239 49.0597 55.7886 49.0448 55.513 49.0448C54.4403 49.0448 53.6283 49.246 53.0695 49.6408C52.5108 50.0356 52.2277 50.639 52.2277 51.451C52.2277 51.9651 52.3246 52.3748 52.5108 52.6653C52.6971 52.9558 52.9354 53.1793 53.2185 53.3358C53.5016 53.4922 53.8145 53.5891 54.1646 53.6189C54.5073 53.6561 54.8351 53.671 55.148 53.671C55.5428 53.671 55.9525 53.6487 56.3771 53.604C56.8018 53.5593 57.1742 53.4997 57.502 53.4103V49.2013Z" fill="#4C4C4D"/>
<path d="M62.806 42.1693C62.9774 42.1321 63.1562 42.1097 63.335 42.0948C63.5137 42.0799 63.7 42.0725 63.8937 42.0725C64.065 42.0725 64.2438 42.0799 64.4375 42.0948C64.6237 42.1097 64.81 42.1395 64.9813 42.1693C64.9962 42.2066 65.0186 42.3109 65.0484 42.4896C65.0707 42.6684 65.1005 42.8621 65.1229 43.0707C65.1452 43.2793 65.175 43.473 65.1973 43.6667C65.2197 43.8604 65.2346 43.9796 65.2346 44.0317C65.4059 43.7561 65.6145 43.4879 65.8529 43.2272C66.0913 42.9664 66.3818 42.7355 66.7171 42.5269C67.0523 42.3183 67.4322 42.1544 67.8568 42.0352C68.2815 41.916 68.7508 41.8564 69.2648 41.8564C70.0395 41.8564 70.7622 41.9831 71.4252 42.2438C72.0882 42.5045 72.6543 42.8994 73.1311 43.4432C73.6079 43.987 73.9729 44.6798 74.2411 45.5142C74.5093 46.3485 74.6434 47.3393 74.6434 48.4791C74.6434 50.7586 74.0251 52.5391 72.7959 53.8204C71.5593 55.1017 69.8161 55.7498 67.5589 55.7498C67.1789 55.7498 66.7915 55.7275 66.3967 55.6754C66.0019 55.6232 65.6518 55.5562 65.3612 55.4668V61.5456C65.1526 61.5828 64.9366 61.6052 64.6982 61.6201C64.4673 61.635 64.2513 61.6424 64.065 61.6424C63.8788 61.6424 63.6627 61.635 63.4318 61.6201C63.2009 61.6052 62.9848 61.5754 62.7986 61.5456V42.1693H62.806ZM65.3687 53.2617C65.6965 53.3809 66.0317 53.4703 66.3744 53.5224C66.7171 53.5746 67.164 53.5969 67.7227 53.5969C68.3411 53.5969 68.9147 53.5001 69.4287 53.2989C69.9427 53.0978 70.3897 52.7924 70.7622 52.3826C71.1346 51.9655 71.4252 51.444 71.6412 50.8182C71.8572 50.1925 71.9615 49.4401 71.9615 48.5834C71.9615 47.2052 71.7082 46.1101 71.2017 45.2981C70.6951 44.4861 69.8608 44.0838 68.7061 44.0838C68.274 44.0838 67.8643 44.1583 67.462 44.3148C67.0672 44.4712 66.7096 44.7022 66.4042 45.015C66.0913 45.3279 65.8455 45.7153 65.6518 46.1921C65.4581 46.6688 65.3687 47.2276 65.3687 47.8831V53.2617Z" fill="#4C4C4D"/>
<path d="M77.8318 44.1801H76.1482C76.1109 44.0386 76.0886 43.8821 76.0737 43.7034C76.0588 43.5246 76.0513 43.3458 76.0513 43.1744C76.0513 43.0031 76.0588 42.8243 76.0737 42.6455C76.0886 42.4667 76.1184 42.3028 76.1482 42.1688H80.3423V55.4364C80.156 55.4736 79.94 55.496 79.709 55.5109C79.4781 55.5258 79.2621 55.5332 79.0758 55.5332C78.9045 55.5332 78.7034 55.5258 78.465 55.5109C78.234 55.496 78.018 55.4662 77.8318 55.4364V44.1801Z" fill="#4C4C4D"/>
<path d="M85.8475 49.4324C85.8847 50.8776 86.2572 51.9429 86.9723 52.6134C87.6875 53.2838 88.7453 53.619 90.1384 53.619C91.3601 53.619 92.5297 53.403 93.6322 52.9709C93.7738 53.2317 93.8855 53.5445 93.9675 53.917C94.0569 54.2895 94.1016 54.6545 94.1239 55.0196C93.5577 55.2579 92.932 55.4442 92.2466 55.5634C91.5687 55.6826 90.8089 55.7422 89.982 55.7422C88.7751 55.7422 87.7397 55.5708 86.8755 55.2356C86.0114 54.9004 85.3036 54.4236 84.7449 53.8127C84.1862 53.2019 83.7765 52.4793 83.5158 51.6375C83.255 50.8031 83.1284 49.8868 83.1284 48.8811C83.1284 47.8978 83.255 46.9815 83.5009 46.1248C83.7467 45.2681 84.1341 44.5306 84.6481 43.8974C85.1621 43.2716 85.8177 42.765 86.5999 42.4C87.3821 42.0275 88.3133 41.8413 89.3785 41.8413C90.2948 41.8413 91.0919 41.9977 91.7847 42.3106C92.4776 42.6235 93.0512 43.0481 93.5205 43.5919C93.9824 44.1358 94.3399 44.7839 94.5783 45.5288C94.8167 46.2812 94.9434 47.0932 94.9434 47.9723C94.9434 48.2107 94.9359 48.4714 94.9136 48.7321C94.8987 49.0003 94.8763 49.2313 94.8614 49.4175H85.8475V49.4324ZM92.418 47.5179C92.418 47.0336 92.3509 46.5718 92.2243 46.1322C92.0976 45.6927 91.9039 45.3128 91.6581 44.985C91.4048 44.6572 91.0919 44.3965 90.7046 44.1954C90.3172 43.9942 89.8553 43.8974 89.319 43.8974C88.2686 43.8974 87.464 44.2177 86.8979 44.8509C86.3391 45.4916 85.9965 46.3781 85.8773 47.5179H92.418Z" fill="#4C4C4D"/>
<path d="M97.7742 42.1688C97.9605 42.1315 98.1467 42.1092 98.3181 42.0943C98.4894 42.0794 98.6682 42.0719 98.8619 42.0719C99.0481 42.0719 99.2418 42.0794 99.428 42.0943C99.6143 42.1092 99.7931 42.139 99.9421 42.1688C99.9942 42.4295 100.046 42.7647 100.098 43.1893C100.151 43.614 100.173 43.9715 100.173 44.2621C100.538 43.6736 101.015 43.167 101.611 42.7349C102.207 42.3028 102.967 42.0868 103.898 42.0868C104.039 42.0868 104.181 42.0943 104.322 42.1017C104.471 42.1092 104.591 42.1241 104.695 42.139C104.732 42.2954 104.754 42.4593 104.769 42.6306C104.784 42.802 104.792 42.9808 104.792 43.1744C104.792 43.383 104.777 43.5991 104.754 43.8226C104.732 44.046 104.695 44.2621 104.665 44.4707C104.524 44.4334 104.382 44.4185 104.24 44.4185C104.091 44.4185 103.98 44.4185 103.89 44.4185C103.428 44.4185 102.981 44.4856 102.557 44.6122C102.132 44.7388 101.752 44.9698 101.417 45.2976C101.082 45.6253 100.814 46.0723 100.613 46.6459C100.411 47.2121 100.315 47.9496 100.315 48.8436V55.4364C100.128 55.4736 99.9123 55.496 99.6813 55.5109C99.4504 55.5258 99.2343 55.5332 99.0481 55.5332C98.8619 55.5332 98.6458 55.5258 98.4149 55.5109C98.184 55.496 97.9605 55.4662 97.7519 55.4364V42.1688H97.7742Z" fill="#4C4C4D"/>
<path d="M82.7782 34.3619H80.2751L82.0481 32.5889C81.9066 32.3952 81.7501 32.209 81.5862 32.0377C81.4149 31.8663 81.2361 31.7099 81.035 31.5758L79.262 33.3488V30.8457C79.031 30.8085 78.7927 30.7861 78.5468 30.7861H78.5394C78.2935 30.7861 78.0551 30.8085 77.8242 30.8457V33.3488L76.0512 31.5758C75.8575 31.7173 75.6713 31.8738 75.5 32.0377C75.3286 32.209 75.1796 32.3878 75.0381 32.5889L76.8185 34.3619H74.3155C74.3155 34.3619 74.2559 34.8312 74.2559 35.0771C74.2559 35.3229 74.2782 35.5613 74.3155 35.7922H76.8185L75.0455 37.5652C75.3212 37.9526 75.6638 38.2953 76.0587 38.5784L77.8317 36.8054V39.3084C78.0626 39.3457 78.301 39.368 78.5468 39.368H78.5543C78.8001 39.368 79.0385 39.3457 79.2694 39.3084V36.8054L81.0424 38.5784C81.2361 38.4368 81.4223 38.2804 81.5937 38.1165C81.765 37.9451 81.9215 37.7664 82.0556 37.5652L80.2826 35.7922H82.7856C82.8229 35.5613 82.8452 35.3229 82.8452 35.0771V35.0696C82.8378 34.8312 82.8229 34.5929 82.7782 34.3619ZM79.6195 35.0845C79.6195 35.4049 79.56 35.7103 79.4557 35.9934C79.1726 36.0977 78.8671 36.1573 78.5468 36.1573C78.2265 36.1573 77.9211 36.0977 77.638 35.9934C77.5337 35.7103 77.4741 35.4049 77.4741 35.0845V35.0771C77.4741 34.7567 77.5337 34.4513 77.638 34.1682C77.9211 34.0639 78.2265 34.0043 78.5468 34.0043C78.8671 34.0043 79.1726 34.0639 79.4557 34.1682C79.56 34.4513 79.6195 34.7567 79.6195 35.0845Z" fill="#4C4C4D"/>
</g>
<defs>
<clipPath id="clip0_0_465">
<rect width="68" height="34" fill="white" transform="translate(37.3574 30)"/>
</clipPath>
</defs>
</svg>
