<svg width="144" height="94" viewBox="0 0 144 94" fill="none" xmlns="http://www.w3.org/2000/svg">
<g clip-path="url(#clip0_0_493)">
<path d="M58.0706 54.6319V44.3221H58.2543L65.7588 54.6319H68.1204V39.4918H65.4964V49.7756H65.3128L57.8082 39.4918H55.4466V54.6319H58.0706ZM75.5462 54.8656C79.0099 54.8656 81.1353 52.6323 81.1353 48.8927C81.1353 45.1791 79.0099 42.9197 75.5462 42.9197C72.1088 42.9197 69.9572 45.1791 69.9572 48.8927C69.9834 52.6323 72.0826 54.8656 75.5462 54.8656ZM75.5462 52.6842C73.7095 52.6842 72.6599 51.3078 72.6599 48.8927C72.6599 46.5035 73.7095 45.1011 75.5462 45.1011C77.383 45.1011 78.4326 46.5035 78.4326 48.8927C78.4326 51.3078 77.383 52.6842 75.5462 52.6842ZM83.5231 40.3488V43.2314H81.6863V45.3089H83.5231V51.5675C83.5231 53.8009 84.5727 54.6838 87.2492 54.6838C87.7477 54.6838 88.2463 54.6319 88.6399 54.554V52.5284C88.325 52.5544 88.1151 52.5803 87.7477 52.5803C86.6456 52.5803 86.1471 52.0869 86.1471 50.9443V45.3089H88.6399V43.2314H86.1471V40.3488H83.5231ZM90.2143 54.6319H92.8382V43.1534H90.2143V54.6319ZM91.5262 41.2577C92.3921 41.2577 93.1006 40.5565 93.1006 39.6995C93.1006 38.8166 92.3921 38.1154 91.5262 38.1154C90.6603 38.1154 89.9519 38.8166 89.9519 39.6995C89.9519 40.5565 90.6603 41.2577 91.5262 41.2577ZM100.028 54.8656C103.492 54.8656 105.617 52.6323 105.617 48.8927C105.617 45.1791 103.492 42.9197 100.028 42.9197C96.5905 42.9197 94.4388 45.1791 94.4388 48.8927C94.4388 52.6323 96.538 54.8656 100.028 54.8656ZM100.028 52.6842C98.1911 52.6842 97.1415 51.3078 97.1415 48.8927C97.1415 46.5035 98.1911 45.1011 100.028 45.1011C101.838 45.1011 102.914 46.5035 102.914 48.8927C102.888 51.3078 101.838 52.6842 100.028 52.6842ZM107.165 54.6319H109.789V47.9578C109.789 46.2698 110.786 45.205 112.334 45.205C113.935 45.205 114.67 46.088 114.67 47.8279V54.6319H117.294V47.2047C117.294 44.4519 115.877 42.9197 113.305 42.9197C111.573 42.9197 110.419 43.6988 109.868 44.9973H109.684V43.1534H107.139C107.165 43.1534 107.165 54.6319 107.165 54.6319Z" fill="#4C4C4D"/>
<path fill-rule="evenodd" clip-rule="evenodd" d="M30.2873 38.5227C31.051 39.1388 31.3272 39.0902 32.7571 38.9929L46.2277 38.1823C46.5202 38.1823 46.2764 37.8904 46.1789 37.858L43.9365 36.2529C43.5141 35.9286 42.9291 35.5395 41.8404 35.6368L28.8086 36.5933C28.3374 36.642 28.2399 36.8852 28.4348 37.0635L30.2873 38.5227ZM31.0997 41.6519V55.79C31.0997 56.552 31.4734 56.8276 32.3346 56.779L47.1376 55.9197C47.9988 55.871 48.0963 55.3522 48.0963 54.7361V40.6953C48.0963 40.0792 47.8526 39.7387 47.3326 39.7874L31.8634 40.6953C31.2947 40.744 31.0997 41.0358 31.0997 41.6519ZM45.7077 42.4139C45.8052 42.8355 45.7077 43.2732 45.2852 43.3219L44.5703 43.4678V53.9092C43.9528 54.2335 43.3841 54.428 42.8966 54.428C42.1329 54.428 41.9379 54.1848 41.3692 53.4715L36.7057 46.1592V53.2283L38.1843 53.5525C38.1843 53.5525 38.1843 54.4118 36.9981 54.4118L33.7158 54.6064C33.6183 54.4118 33.7158 53.9416 34.0408 53.8444L34.902 53.6012V44.2623L33.7158 44.165C33.6183 43.7434 33.8621 43.1273 34.5283 43.0787L38.0543 42.8355L42.9128 50.2288V43.6948L41.6779 43.5489C41.5804 43.0301 41.9704 42.6409 42.4416 42.5923L45.7077 42.4139ZM27.7199 35.2963L41.2879 34.3073C42.9453 34.1613 43.3841 34.2586 44.424 35.0207L48.7463 38.0525C49.4612 38.5714 49.705 38.7173 49.705 39.2848V55.9359C49.705 56.9735 49.3313 57.5896 47.9988 57.6869L32.2534 58.6435C31.246 58.6922 30.7747 58.5462 30.2548 57.8815L27.0537 53.7471C26.4849 52.9851 26.2412 52.4176 26.2412 51.7528V36.95C26.2412 36.0907 26.6312 35.3936 27.7199 35.2963Z" fill="#4C4C4D"/>
</g>
<defs>
<clipPath id="clip0_0_493">
<rect width="91.375" height="34" fill="white" transform="translate(26.2412 30)"/>
</clipPath>
</defs>
</svg>
