<svg width="144" height="94" viewBox="0 0 144 94" fill="none" xmlns="http://www.w3.org/2000/svg">
<g clip-path="url(#clip0_0_473)">
<path fill-rule="evenodd" clip-rule="evenodd" d="M93.5364 44.591C93.8015 45.0483 93.8882 45.5686 93.9169 46.1536L93.9545 46.9333V52.3851L93.993 53.1656C94.0699 54.4402 95.0099 55.3827 96.2943 55.4629L97.0707 55.5013V46.9333L97.1091 46.1536C97.141 45.5752 97.2269 45.0451 97.4961 44.5845C97.7704 44.112 98.1641 43.7201 98.6377 43.4479C99.1114 43.1758 99.6483 43.0331 100.195 43.0341C100.741 43.035 101.277 43.1797 101.75 43.4536C102.223 43.7275 102.615 44.1209 102.887 44.5943C103.152 45.0516 103.235 45.5817 103.267 46.1536L103.305 46.9308V52.3851L103.344 53.1656C103.424 54.4468 104.357 55.3892 105.645 55.4629L106.422 55.5013V46.1536C106.422 44.5007 105.765 42.9154 104.597 41.7464C103.428 40.5773 101.843 39.9203 100.19 39.9196C99.3054 39.9187 98.4307 40.1065 97.6244 40.4707C96.8182 40.8348 96.0989 41.3668 95.5146 42.0311C94.9301 41.3671 94.2108 40.8352 93.4046 40.471C92.5984 40.1067 91.7238 39.9185 90.8391 39.9188C89.5449 39.9188 88.3439 40.3115 87.3491 40.9897C86.7421 40.3123 85.384 39.9188 84.6043 39.9188V55.5013L85.384 55.4629C86.6881 55.377 87.6305 54.4599 87.6812 53.1656L87.723 52.3851V46.9333L87.7614 46.1536C87.7941 45.5654 87.876 45.0483 88.1418 44.5877C88.4163 44.1156 88.8099 43.7237 89.2832 43.4513C89.7565 43.1788 90.293 43.0352 90.8391 43.035C91.3857 43.0351 91.9226 43.1789 92.396 43.452C92.8695 43.7251 93.2627 44.1179 93.5364 44.591ZM40.1933 55.4637L40.973 55.5013H52.6597L52.6212 54.7241C52.5157 53.4429 51.6084 52.507 50.3231 52.4236L49.5435 52.3851H42.5323L51.88 43.0341L51.8416 42.2578C51.781 40.9635 50.8353 40.0284 49.5435 39.9572L48.7638 39.9221L37.0771 39.9188L37.1156 40.6984C37.2179 41.9673 38.1382 42.9229 39.4128 42.9965L40.1933 43.035H47.2045L37.8568 52.3859L37.8953 53.1656C37.9722 54.45 38.8991 55.3802 40.1933 55.4629V55.4637ZM81.5454 42.1997C82.2691 42.9231 82.8431 43.7821 83.2347 44.7274C83.6263 45.6728 83.8279 46.686 83.8279 47.7092C83.8279 48.7325 83.6263 49.7457 83.2347 50.691C82.8431 51.6364 82.2691 52.4953 81.5454 53.2188C80.0835 54.6796 78.1013 55.5001 76.0347 55.5001C73.968 55.5001 71.9858 54.6796 70.5239 53.2188C67.4813 50.1762 67.4813 45.2422 70.5239 42.1997C71.2468 41.4764 72.1052 40.9027 73.0499 40.5112C73.9946 40.1197 75.0071 39.9181 76.0297 39.918C77.054 39.9173 78.0684 40.1185 79.0148 40.5101C79.9612 40.9018 80.8212 41.4762 81.5454 42.2005V42.1997ZM79.3406 44.4061C80.217 45.2831 80.7093 46.4723 80.7093 47.7121C80.7093 48.9519 80.217 50.141 79.3406 51.0181C78.4636 51.8944 77.2745 52.3867 76.0347 52.3867C74.7948 52.3867 73.6057 51.8944 72.7287 51.0181C71.8523 50.141 71.36 48.9519 71.36 47.7121C71.36 46.4723 71.8523 45.2831 72.7287 44.4061C73.6057 43.5297 74.7948 43.0375 76.0347 43.0375C77.2745 43.0375 78.4636 43.5297 79.3406 44.4061ZM59.6774 39.918C60.7001 39.9182 61.7127 40.1199 62.6574 40.5116C63.6021 40.9032 64.4604 41.4771 65.1833 42.2005C68.2266 45.2422 68.2266 50.1771 65.1833 53.2188C63.7213 54.6796 61.7392 55.5001 59.6725 55.5001C57.6058 55.5001 55.6237 54.6796 54.1617 53.2188C51.1192 50.1762 51.1192 45.2422 54.1617 42.1997C54.8847 41.4764 55.743 40.9027 56.6877 40.5112C57.6324 40.1197 58.645 39.9181 59.6676 39.918H59.6774ZM62.9785 44.4045C63.8551 45.2815 64.3475 46.4708 64.3475 47.7109C64.3475 48.9509 63.8551 50.1402 62.9785 51.0173C62.1014 51.8936 60.9123 52.3859 59.6725 52.3859C58.4326 52.3859 57.2435 51.8936 56.3665 51.0173C55.4901 50.1402 54.9979 48.9511 54.9979 47.7113C54.9979 46.4714 55.4901 45.2823 56.3665 44.4053C57.2435 43.5289 58.4326 43.0366 59.6725 43.0366C60.9123 43.0366 62.1014 43.5289 62.9785 44.4053V44.4045Z" fill="#4C4C4D"/>
</g>
<defs>
<clipPath id="clip0_0_473">
<rect width="69.4166" height="34" fill="white" transform="translate(37.0771 30)"/>
</clipPath>
</defs>
</svg>
