<svg width="144" height="94" viewBox="0 0 144 94" fill="none" xmlns="http://www.w3.org/2000/svg">
<g clip-path="url(#clip0_0_482)">
<path d="M35.4768 34.25H25.1104V59.0417L35.4768 34.25Z" fill="#4C4C4D"/>
<path d="M42.7705 34.25H53.1234V59.0417L42.7705 34.25Z" fill="#4C4C4D"/>
<path d="M39.1233 43.3877L45.7214 59.042H41.3925L39.4205 54.058H34.5918L39.1233 43.3877Z" fill="#4C4C4D"/>
<path d="M70.0364 50.0143L71.2588 53.5194C71.2993 53.6071 71.3601 53.6477 71.4681 53.6477H73.8183C73.9466 53.6477 73.9669 53.5869 73.9466 53.4586L69.0909 39.9721C69.0707 39.864 69.0504 39.8438 68.9423 39.8438H66.0249C65.9439 39.8438 65.8966 39.9045 65.8966 39.9923C65.856 40.7014 65.7953 40.9175 65.7075 41.1269L61.3786 53.4383C61.3583 53.5869 61.4056 53.6477 61.5271 53.6477H63.6274C63.7558 53.6477 63.8165 53.6071 63.8638 53.4788L65.0186 50.0143H70.0364ZM65.6872 47.7249C66.322 45.807 67.1595 43.3488 67.4971 41.9441H67.5174C67.9361 43.4163 68.9221 46.3338 69.3678 47.7249H65.6872Z" fill="#4C4C4D"/>
<path d="M80.1892 53.8566C81.4521 53.8566 82.796 53.627 84.1602 53.0394C84.2682 52.9989 84.2885 52.9516 84.2885 52.8503C84.248 52.4721 84.2007 51.9251 84.2007 51.5064V38.81C84.2007 38.729 84.2007 38.6885 84.0994 38.6885H81.81C81.7222 38.6885 81.6817 38.729 81.6817 38.8371V43.139C81.3237 43.0984 81.0739 43.0782 80.7767 43.0782C77.0826 43.0782 74.8135 45.5161 74.8135 48.5619C74.8135 52.0939 77.1434 53.8566 80.1892 53.8566ZM81.6817 51.5064C81.3035 51.628 80.8848 51.6752 80.4593 51.6752C78.7845 51.6752 77.4135 50.7298 77.4135 48.4336C77.4135 46.4008 78.825 45.1987 80.6957 45.1987C81.0739 45.1987 81.4048 45.2393 81.6817 45.3473V51.5064Z" fill="#4C4C4D"/>
<path d="M91.5899 43.0791C88.4361 43.0791 86.4844 45.4968 86.4844 48.4818C86.4844 51.1494 88.0377 53.8575 91.5427 53.8575C94.5074 53.8575 96.5874 51.6762 96.5874 48.4143C96.5874 45.5373 94.8248 43.0791 91.5899 43.0791ZM91.4616 45.1997C93.2445 45.1997 94.0009 46.7327 94.0009 48.4818C94.0009 50.6429 92.8866 51.7167 91.5899 51.7167C89.9894 51.7167 89.0439 50.3728 89.0439 48.4345C89.0439 46.4423 90.0502 45.1997 91.4616 45.1997Z" fill="#4C4C4D"/>
<path d="M98.9552 38.6885C98.8674 38.6885 98.8066 38.729 98.8066 38.8371V53.2082C98.8066 53.269 98.8674 53.3771 98.9552 53.3973C99.9615 53.708 101.015 53.8566 102.102 53.8566C105.216 53.8566 108.241 51.9251 108.241 48.0352C108.241 45.219 106.31 43.0782 103.284 43.0782C102.589 43.0782 101.94 43.1862 101.373 43.3753L101.346 38.8573C101.346 38.7087 101.305 38.6885 101.157 38.6885H98.9552ZM105.655 48.2918C105.655 50.6217 104.061 51.7157 102.339 51.7157C101.981 51.7157 101.663 51.6955 101.373 51.6077V45.4756C101.704 45.3473 102.102 45.2393 102.838 45.2393C104.5 45.2393 105.655 46.2928 105.655 48.2918Z" fill="#4C4C4D"/>
<path d="M116.786 49.0491C117.812 49.0491 118.656 49.0288 118.947 48.9613C119.055 48.941 119.095 48.9005 119.116 48.8127C119.176 48.5831 119.203 48.1036 119.203 47.5161C119.203 45.5171 118.001 43.0791 114.895 43.0791C111.721 43.0791 109.958 45.6656 109.958 48.5831C109.958 51.1697 111.322 53.8575 115.145 53.8575C116.576 53.8575 117.502 53.6279 118.298 53.2497C118.379 53.2092 118.42 53.1416 118.42 53.0201V51.271C118.42 51.1697 118.359 51.1494 118.298 51.1899C117.502 51.5276 116.637 51.6964 115.692 51.6964C113.551 51.6964 112.578 50.5146 112.518 49.0491H116.786ZM112.518 47.2392C112.686 46.2127 113.335 45.0984 114.787 45.0984C116.387 45.0984 116.806 46.4423 116.806 47.0501C116.806 47.0703 116.806 47.1581 116.806 47.2189C116.718 47.2392 116.448 47.2392 115.651 47.2392H112.518Z" fill="#4C4C4D"/>
</g>
<defs>
<clipPath id="clip0_0_482">
<rect width="94.2083" height="34" fill="white" transform="translate(25.1104 30)"/>
</clipPath>
</defs>
</svg>
