<svg width="143" height="94" viewBox="0 0 143 94" fill="none" xmlns="http://www.w3.org/2000/svg">
<g clip-path="url(#clip0_0_497)">
<path d="M43.1418 56.9623C41.959 57.17 40.7554 57.2323 39.5103 57.3982L35.7126 46.2752V57.8755C34.5298 58 33.4507 58.166 32.3301 58.332V37.082H35.4845L39.8008 49.1391V37.082H43.1418V56.9623ZM49.6787 44.864C50.9654 44.864 52.9368 44.8017 54.1197 44.8017V48.122C52.6462 48.122 50.9239 48.122 49.6787 48.1843V53.1233C51.6295 52.9988 53.5802 52.8327 55.5515 52.7704V55.966L46.3583 56.6925V37.082H55.5515V40.4023H49.6787V44.864ZM67.8989 40.4024H64.4541V55.6758C63.3335 55.6758 62.2129 55.6758 61.1339 55.7172V40.4024H57.6891V37.082H67.899L67.8989 40.4024ZM73.2944 44.6358H77.8391V47.956H73.2944V55.4891H70.0361V37.082H79.3125V40.4023H73.2944V44.6358ZM84.708 52.5837C86.5964 52.6251 88.5055 52.7706 90.3525 52.8742V56.1531C87.385 55.9662 84.4175 55.7797 81.3877 55.7172V37.082H84.708V52.5837ZM93.154 56.3813C94.2123 56.4437 95.333 56.506 96.412 56.6303V37.082H93.154V56.3813ZM110.959 37.082L106.747 47.1883L110.959 58.332C109.714 58.166 108.469 57.9377 107.224 57.7302L104.837 51.5877L102.41 57.2323C101.206 57.0246 100.044 56.9623 98.8403 56.7963L103.115 47.0636L99.2552 37.082H102.824L105.003 42.6643L107.328 37.082H110.959V37.082Z" fill="#4C4C4D"/>
</g>
<defs>
<clipPath id="clip0_0_497">
<rect width="78.625" height="34" fill="white" transform="translate(32.3301 30)"/>
</clipPath>
</defs>
</svg>
