<svg width="143" height="94" viewBox="0 0 143 94" fill="none" xmlns="http://www.w3.org/2000/svg">
<g clip-path="url(#clip0_0_477)">
<path fill-rule="evenodd" clip-rule="evenodd" d="M80.6599 56.7787C76.1524 60.1011 69.619 61.8738 63.9939 61.8738C56.1066 61.8738 49.006 58.9565 43.6341 54.1046C43.212 53.7231 43.5902 53.2031 44.0967 53.5002C49.894 56.8733 57.0621 58.9025 64.4666 58.9025C69.4603 58.9025 74.9538 57.8693 80.0049 55.7253C80.768 55.4012 81.4061 56.225 80.6599 56.7787Z" fill="#4C4C4D"/>
<path fill-rule="evenodd" clip-rule="evenodd" d="M82.5339 54.6347C81.9599 53.8987 78.7253 54.287 77.2735 54.4592C76.8311 54.5132 76.7636 54.1283 77.162 53.8514C79.7382 52.0383 83.9655 52.5616 84.4585 53.1694C84.9514 53.7805 84.3302 58.0179 81.9093 60.0404C81.5379 60.351 81.1833 60.1856 81.3488 59.7737C81.8924 58.4163 83.1113 55.3742 82.5339 54.6347Z" fill="#4C4C4D"/>
<path fill-rule="evenodd" clip-rule="evenodd" d="M77.3756 41.0526V39.2901C77.3756 39.0233 77.5782 38.8444 77.8213 38.8444H85.712C85.9652 38.8444 86.1678 39.0267 86.1678 39.2901V40.7993C86.1645 41.0526 85.9517 41.3835 85.5736 41.9068L81.4847 47.7446C83.0041 47.7075 84.6079 47.9337 85.9855 48.7103C86.2961 48.8859 86.3805 49.1425 86.4042 49.3957V51.2764C86.4042 51.533 86.1206 51.8335 85.8234 51.6782C83.3958 50.4053 80.1713 50.2668 77.487 51.6917C77.2136 51.8403 76.9266 51.5431 76.9266 51.2865V49.5004C76.9266 49.2134 76.9299 48.7238 77.2169 48.2883L81.954 41.4949H77.8314C77.5782 41.4949 77.3756 41.3159 77.3756 41.0526Z" fill="#4C4C4D"/>
<path fill-rule="evenodd" clip-rule="evenodd" d="M48.5916 52.0496H46.191C45.9614 52.0327 45.779 51.8605 45.7621 51.6411V39.3205C45.7621 39.074 45.9681 38.8782 46.2247 38.8782H48.4633C48.6963 38.8883 48.882 39.0673 48.8988 39.2901V40.9007H48.9427C49.5269 39.3441 50.6242 38.6182 52.1031 38.6182C53.6056 38.6182 54.5442 39.3441 55.2195 40.9007C55.8003 39.3441 57.1204 38.6182 58.5352 38.6182C59.5413 38.6182 60.642 39.0335 61.314 39.9654C62.0736 41.002 61.9183 42.5078 61.9183 43.828L61.915 51.6039C61.915 51.8504 61.709 52.0496 61.4524 52.0496H59.0551C58.8154 52.0327 58.6229 51.8403 58.6229 51.6039V45.0739C58.6229 44.554 58.6702 43.2574 58.5554 42.7644C58.3765 41.9372 57.8396 41.7042 57.1441 41.7042C56.5633 41.7042 55.9556 42.0925 55.7091 42.7138C55.4626 43.3351 55.4862 44.375 55.4862 45.0739V51.6039C55.4862 51.8504 55.2803 52.0496 55.0237 52.0496H52.6264C52.3833 52.0327 52.1942 51.8403 52.1942 51.6039L52.1909 45.0739C52.1909 43.6997 52.4171 41.6772 50.712 41.6772C48.9866 41.6772 49.0542 43.6491 49.0542 45.0739V51.6039C49.0542 51.8504 48.8482 52.0496 48.5916 52.0496Z" fill="#4C4C4D"/>
<path fill-rule="evenodd" clip-rule="evenodd" d="M92.9611 38.6182C96.5232 38.6182 98.4512 41.6772 98.4512 45.5669C98.4512 49.3248 96.3206 52.3062 92.9611 52.3062C89.4631 52.3062 87.5588 49.2472 87.5588 45.4352C87.5588 41.5996 89.4868 38.6182 92.9611 38.6182ZM92.9814 41.1336C91.2121 41.1336 91.1007 43.5444 91.1007 45.0469C91.1007 46.5528 91.0771 49.7671 92.9611 49.7671C94.8215 49.7671 94.9093 47.1741 94.9093 45.5939C94.9093 44.554 94.8654 43.3114 94.5514 42.3255C94.2813 41.4679 93.7444 41.1336 92.9814 41.1336Z" fill="#4C4C4D"/>
<path fill-rule="evenodd" clip-rule="evenodd" d="M103.07 52.0496H100.68C100.44 52.0327 100.248 51.8403 100.248 51.6039L100.244 39.28C100.264 39.0538 100.464 38.8782 100.707 38.8782H102.932C103.141 38.8883 103.313 39.0301 103.361 39.2226V41.1066H103.404C104.076 39.4218 105.018 38.6182 106.676 38.6182C107.753 38.6182 108.803 39.0065 109.479 40.0701C110.107 41.056 110.107 42.7138 110.107 43.9057V51.6613C110.08 51.8774 109.88 52.0496 109.644 52.0496H107.237C107.017 52.0327 106.835 51.8707 106.811 51.6613V44.9693C106.811 43.6221 106.967 41.6502 105.309 41.6502C104.725 41.6502 104.188 42.0419 103.921 42.6361C103.583 43.3891 103.54 44.1387 103.54 44.9693V51.6039C103.536 51.8504 103.327 52.0496 103.07 52.0496Z" fill="#4C4C4D"/>
<path fill-rule="evenodd" clip-rule="evenodd" d="M71.0854 46.1645C71.0854 47.0998 71.109 47.8797 70.6363 48.7103C70.2548 49.3856 69.647 49.8009 68.9751 49.8009C68.0533 49.8009 67.5131 49.0986 67.5131 48.062C67.5131 46.0159 69.3465 45.6445 71.0854 45.6445V46.1645ZM73.5063 52.0158C73.3476 52.1576 73.118 52.1678 72.939 52.0732C72.1422 51.4114 71.997 51.1042 71.5614 50.4728C70.2446 51.8166 69.3094 52.2184 67.6043 52.2184C65.5818 52.2184 64.0118 50.9725 64.0118 48.4773C64.0118 46.5291 65.0652 45.2022 66.5711 44.5539C67.8744 43.9799 69.6943 43.8786 71.0854 43.72V43.4093C71.0854 42.8387 71.1293 42.1634 70.7916 41.6705C70.5012 41.2282 69.9408 41.0458 69.4444 41.0458C68.5294 41.0458 67.7157 41.5151 67.5165 42.4876C67.476 42.7036 67.3173 42.9164 67.0978 42.9265L64.7715 42.6766C64.5756 42.6327 64.3561 42.4741 64.4135 42.1736C64.947 39.3509 67.4996 38.5 69.7821 38.5C70.9503 38.5 72.4764 38.8106 73.3982 39.6953C74.5665 40.7858 74.455 42.2411 74.455 43.8246V47.5657C74.455 48.6901 74.921 49.183 75.3599 49.7908C75.5119 50.0069 75.5456 50.2668 75.3498 50.4289C74.8602 50.8375 73.9891 51.5972 73.5096 52.0226L73.5063 52.0158Z" fill="#4C4C4D"/>
<path fill-rule="evenodd" clip-rule="evenodd" d="M39.6136 46.1645C39.6136 47.0997 39.6373 47.8797 39.1646 48.7103C38.783 49.3856 38.1787 49.8009 37.5034 49.8009C36.5816 49.8009 36.0448 49.0986 36.0448 48.062C36.0448 46.0159 37.8782 45.6445 39.6136 45.6445V46.1645ZM42.0345 52.0158C41.8758 52.1576 41.6462 52.1678 41.4673 52.0732C40.6705 51.4114 40.5287 51.1042 40.0897 50.4728C38.7729 51.8166 37.841 52.2184 36.1326 52.2184C34.1134 52.2184 32.54 50.9725 32.54 48.4773C32.54 46.5291 33.5969 45.2022 35.0994 44.5539C36.4027 43.9799 38.2226 43.8786 39.6136 43.72V43.4093C39.6136 42.8387 39.6575 42.1634 39.3233 41.6705C39.0295 41.2281 38.469 41.0458 37.9761 41.0458C37.0611 41.0458 36.244 41.5151 36.0448 42.4876C36.0042 42.7036 35.8456 42.9164 35.6295 42.9265L33.2997 42.6766C33.1039 42.6327 32.8878 42.474 32.9418 42.1735C33.4787 39.3509 36.0279 38.5 38.3103 38.5C39.4786 38.5 41.0047 38.8106 41.9265 39.6953C43.0947 40.7858 42.9833 42.2411 42.9833 43.8246V47.5657C42.9833 48.69 43.4493 49.183 43.8882 49.7908C44.0435 50.0068 44.0773 50.2668 43.8814 50.4289C43.3919 50.8374 42.5207 51.5971 42.0413 52.0226L42.0345 52.0158Z" fill="#4C4C4D"/>
</g>
<defs>
<clipPath id="clip0_0_477">
<rect width="77.9166" height="34" fill="white" transform="translate(32.541 30)"/>
</clipPath>
</defs>
</svg>
