<svg width="144" height="94" viewBox="0 0 144 94" fill="none" xmlns="http://www.w3.org/2000/svg">
<g clip-path="url(#clip0_0_469)">
<path d="M37.4163 32.1807C29.2011 32.1807 22.541 38.8405 22.541 47.0558C22.541 55.2713 29.2011 61.9307 37.4163 61.9307C45.6324 61.9307 52.2917 55.2713 52.2917 47.0558C52.2917 38.8411 45.6324 32.1814 37.4161 32.1814L37.4163 32.1807ZM44.238 53.6348C43.9716 54.0718 43.3996 54.2103 42.9626 53.9421C39.4701 51.8088 35.0734 51.3256 29.8954 52.5086C29.3965 52.6223 28.8991 52.3097 28.7854 51.8106C28.6712 51.3114 28.9826 50.814 29.4828 50.7004C35.1492 49.4058 40.0097 49.9632 43.9307 52.3594C44.3677 52.6276 44.5062 53.1978 44.238 53.6348ZM46.0587 49.5845C45.723 50.1302 45.0089 50.3025 44.4636 49.9668C40.4651 47.5091 34.3701 46.7973 29.6407 48.2329C29.0274 48.4182 28.3795 48.0725 28.1934 47.4602C28.0086 46.8469 28.3545 46.2003 28.9668 46.0138C34.3691 44.3746 41.0851 45.1686 45.6768 47.9903C46.2221 48.326 46.3944 49.0401 46.0587 49.5847V49.5845ZM46.215 45.3668C41.4208 42.5193 33.5109 42.2574 28.9336 43.6467C28.1985 43.8696 27.4212 43.4547 27.1985 42.7196C26.9757 41.9842 27.3903 41.2075 28.1259 40.984C33.3804 39.3889 42.1153 39.6971 47.635 42.9738C48.2976 43.3662 48.5143 44.2201 48.1217 44.8803C47.7309 45.5415 46.8747 45.7594 46.2157 45.3668H46.215ZM63.0117 45.9125C60.4432 45.3001 59.9867 44.8702 59.9867 43.9669C59.9867 43.1136 60.7896 42.5393 61.985 42.5393C63.1432 42.5393 64.2907 42.9754 65.495 43.8732C65.5305 43.9003 65.5767 43.9112 65.6211 43.9041C65.6673 43.8973 65.7064 43.8726 65.733 43.8355L66.9871 42.0677C67.0386 41.9949 67.0244 41.8945 66.9551 41.8389C65.5216 40.6891 63.9088 40.1301 62.0223 40.1301C59.2495 40.1301 57.3116 41.7944 57.3116 44.1755C57.3116 46.7289 58.9831 47.633 61.8713 48.331C64.328 48.8971 64.7436 49.3713 64.7436 50.219C64.7436 51.1586 63.9052 51.7431 62.5552 51.7431C61.056 51.7431 59.8321 51.2368 58.4644 50.0538C58.4306 50.0236 58.3845 50.0112 58.3418 50.0129C58.2956 50.0165 58.2548 50.0378 58.2264 50.0716L56.8195 51.7448C56.7609 51.8159 56.768 51.9189 56.8355 51.9793C58.4271 53.4003 60.3846 54.1499 62.4984 54.1499C65.4861 54.1499 67.417 52.5175 67.417 49.9898C67.4223 47.857 66.1451 46.6758 63.0171 45.9148L63.0117 45.9125ZM74.1776 43.3795C72.8826 43.3795 71.8204 43.8897 70.9429 44.935V43.7584C70.9429 43.6655 70.8683 43.5898 70.7759 43.5898H68.4756C68.3833 43.5898 68.3087 43.6655 68.3087 43.7584V56.8322C68.3087 56.9245 68.3833 57.0009 68.4756 57.0009H70.7759C70.8683 57.0009 70.9429 56.9245 70.9429 56.8322V52.7058C71.8204 53.6881 72.8826 54.1695 74.1776 54.1695C76.5844 54.1695 79.0215 52.3168 79.0215 48.775C79.0251 45.2326 76.588 43.3793 74.1793 43.3793L74.1776 43.3795ZM76.3464 48.775C76.3464 50.5778 75.2362 51.8372 73.6447 51.8372C72.0726 51.8372 70.8861 50.521 70.8861 48.775C70.8861 47.0289 72.0726 45.713 73.6447 45.713C75.2096 45.7129 76.3464 47.0003 76.3464 48.7749V48.775ZM85.2652 43.3795C82.1656 43.3795 79.7374 45.7662 79.7374 48.8136C79.7374 51.8283 82.1496 54.189 85.2279 54.189C88.3382 54.189 90.7735 51.8106 90.7735 48.775C90.7735 45.7498 88.3542 43.3799 85.2652 43.3799V43.3795ZM85.2652 51.855C83.6168 51.855 82.3734 50.5298 82.3734 48.7741C82.3734 47.0105 83.5742 45.7306 85.2279 45.7306C86.887 45.7306 88.1375 47.0552 88.1375 48.8127C88.1375 50.576 86.9296 51.855 85.2652 51.855ZM97.392 43.5898H94.8608V41.0025C94.8608 40.9098 94.7862 40.8341 94.6938 40.8341H92.3935C92.3012 40.8341 92.2248 40.9098 92.2248 41.0025V43.5898H91.1199C91.0275 43.5898 90.9529 43.6655 90.9529 43.7584V45.7349C90.9529 45.8276 91.0275 45.9035 91.1199 45.9035H92.2248V51.0183C92.2248 53.0842 93.2533 54.1322 95.2836 54.1322C96.1078 54.1322 96.7916 53.9616 97.4364 53.5957C97.4897 53.5673 97.5217 53.5105 97.5217 53.4501V51.5672C97.5217 51.5104 97.4915 51.4553 97.4418 51.4251C97.392 51.3931 97.3299 51.3913 97.2784 51.418C96.8361 51.64 96.408 51.7431 95.9284 51.7431C95.1912 51.7431 94.8608 51.4073 94.8608 50.6577V45.9044H97.392C97.4844 45.9044 97.559 45.8287 97.559 45.7358V43.7595C97.5626 43.6666 97.488 43.5909 97.3938 43.5909L97.392 43.5898ZM106.21 43.6V43.2822C106.21 42.3473 106.568 41.9304 107.371 41.9304C107.851 41.9304 108.236 42.0256 108.668 42.1695C108.721 42.1862 108.776 42.1779 108.819 42.1461C108.863 42.1143 108.888 42.0633 108.888 42.0093V40.0713C108.888 39.9973 108.842 39.9317 108.769 39.9099C108.315 39.7743 107.732 39.6353 106.858 39.6353C104.735 39.6353 103.611 40.8314 103.611 43.0932V43.5799H102.506C102.414 43.5799 102.337 43.6556 102.337 43.7483V45.7349C102.337 45.8276 102.414 45.9035 102.506 45.9035H103.611V53.7911C103.611 53.8853 103.687 53.9599 103.78 53.9599H106.078C106.172 53.9599 106.247 53.8853 106.247 53.7911V45.904H108.394L111.684 53.7911C111.311 54.6189 110.943 54.7841 110.443 54.7841C110.038 54.7841 109.609 54.6633 109.174 54.4235C109.133 54.4022 109.084 54.3986 109.041 54.4111C108.997 54.427 108.959 54.459 108.942 54.5016L108.162 56.2122C108.124 56.2939 108.156 56.3881 108.235 56.4307C109.048 56.8712 109.782 57.0595 110.689 57.0595C112.388 57.0595 113.327 56.2673 114.153 54.1393L118.143 43.8302C118.164 43.7783 118.157 43.7197 118.125 43.6737C118.095 43.628 118.043 43.6005 117.988 43.6005H115.594C115.521 43.6005 115.457 43.6461 115.434 43.7135L112.981 50.7181L110.295 43.7088C110.27 43.6437 110.208 43.6005 110.139 43.6005H106.21V43.6ZM101.097 43.5898H98.7971C98.7047 43.5898 98.6283 43.6655 98.6283 43.7584V53.7911C98.6283 53.8853 98.7047 53.9599 98.7971 53.9599H101.097C101.19 53.9599 101.266 53.8853 101.266 53.7911V43.7591C101.266 43.6662 101.192 43.5905 101.097 43.5905V43.5898ZM99.9606 39.0214C99.0493 39.0214 98.3104 39.7589 98.3104 40.67C98.3104 41.5816 99.0493 42.32 99.9606 42.32C100.872 42.32 101.609 41.5816 101.609 40.67C101.609 39.7591 100.87 39.0214 99.9606 39.0214ZM120.107 46.8158C119.198 46.8158 118.489 46.0848 118.489 45.1972C118.489 44.3096 119.207 43.5703 120.116 43.5703C121.026 43.5703 121.734 44.3011 121.734 45.188C121.734 46.0756 121.017 46.8158 120.107 46.8158ZM120.116 43.7312C119.287 43.7312 118.66 44.3902 118.66 45.1972C118.66 46.0038 119.283 46.654 120.107 46.654C120.937 46.654 121.564 45.9955 121.564 45.188C121.564 44.3814 120.94 43.7312 120.116 43.7312ZM120.475 45.3544L120.933 45.9953H120.546L120.134 45.4073H119.781V45.9953H119.457V44.2964H120.214C120.61 44.2964 120.869 44.4984 120.869 44.8384C120.871 45.1169 120.71 45.2871 120.477 45.3544H120.475ZM120.202 44.5879H119.781V45.1253H120.202C120.411 45.1253 120.537 45.0224 120.537 44.8563C120.537 44.6816 120.411 44.5879 120.202 44.5879Z" fill="#4C4C4D"/>
</g>
<defs>
<clipPath id="clip0_0_469">
<rect width="99.1667" height="34" fill="white" transform="translate(22.4873 30)"/>
</clipPath>
</defs>
</svg>
