<svg width="129" height="31" viewBox="0 0 129 31" fill="none" xmlns="http://www.w3.org/2000/svg">
<path d="M17.0621 25.421C16.754 25.9811 16.3059 26.5692 15.7178 27.1854C15.1296 27.7735 14.4435 28.3196 13.6593 28.8237C12.8751 29.2998 12.007 29.6919 11.0547 30C10.1025 30.3361 9.10831 30.5041 8.07207 30.5041C5.57952 30.5041 3.63309 29.832 2.23277 28.4877C0.860468 27.1154 0.174315 25.1829 0.174315 22.6904C0.174315 20.7579 0.482383 18.9375 1.09852 17.2292C1.71466 15.5208 2.56885 14.0224 3.66109 12.7342C4.78134 11.4179 6.09763 10.3816 7.60997 9.62546C9.15032 8.86929 10.8307 8.49121 12.6511 8.49121C14.3315 8.49121 15.7178 8.88329 16.81 9.66747C17.9023 10.4236 18.4484 11.4739 18.4484 12.8182C18.4484 14.7226 17.4962 16.2909 15.5918 17.5232C13.7153 18.7555 10.6627 19.5257 6.43371 19.8337C6.34969 20.2258 6.27968 20.6319 6.22366 21.052C6.19566 21.4441 6.18165 21.8222 6.18165 22.1863C6.18165 23.7826 6.58774 25.0149 7.39993 25.8831C8.21211 26.7233 9.24834 27.1434 10.5086 27.1434C11.0407 27.1434 11.5729 27.0593 12.105 26.8913C12.6371 26.7233 13.1412 26.4992 13.6173 26.2192C14.1214 25.9391 14.5695 25.645 14.9616 25.337C15.3817 25.0009 15.7458 24.6788 16.0539 24.3707L17.0621 25.421ZM11.6849 10.8857C10.7327 10.8857 9.80846 11.4039 8.91226 12.4401C8.04407 13.4763 7.31591 15.2267 6.72778 17.6913C8.80024 17.6352 10.4666 17.1731 11.7269 16.3049C13.0152 15.4368 13.6593 14.3025 13.6593 12.9022C13.6593 12.3421 13.5053 11.866 13.1972 11.4739C12.9172 11.0818 12.413 10.8857 11.6849 10.8857Z" fill="#20B486"/>
<path d="M24.1482 0.593445H37.9273L37.5912 2.1898C36.9751 2.49787 36.2749 2.76393 35.4907 2.98798C34.7346 3.18402 34.0064 3.32405 33.3062 3.40807L28.2651 27.2694H36.3729L40.7419 19.7497H42.5063C42.5063 20.3939 42.4643 21.15 42.3803 22.0182C42.2962 22.8864 42.1842 23.7966 42.0442 24.7488C41.9042 25.701 41.7361 26.6393 41.5401 27.5635C41.372 28.4877 41.19 29.2998 40.994 30H17.9308L18.2249 28.4036C18.953 28.0676 19.6252 27.8015 20.2413 27.6055C20.8575 27.4094 21.4316 27.2694 21.9637 27.1854L27.0048 3.40807C26.3887 3.29605 25.8006 3.14201 25.2404 2.94597C24.6803 2.74993 24.2042 2.49787 23.8121 2.1898L24.1482 0.593445ZM61.2907 25.421C60.9826 25.9811 60.5345 26.5692 59.9464 27.1854C59.3583 27.7735 58.6721 28.3196 57.888 28.8237C57.1038 29.2998 56.2356 29.6919 55.2834 30C54.3312 30.3361 53.3369 30.5041 52.3007 30.5041C49.8082 30.5041 47.8617 29.832 46.4614 28.4877C45.0891 27.1154 44.403 25.1829 44.403 22.6904C44.403 20.7579 44.711 18.9375 45.3272 17.2292C45.9433 15.5208 46.7975 14.0224 47.8897 12.7342C49.01 11.4179 50.3263 10.3816 51.8386 9.62546C53.379 8.86929 55.0593 8.49121 56.8797 8.49121C58.5601 8.49121 59.9464 8.88329 61.0387 9.66747C62.1309 10.4236 62.677 11.4739 62.677 12.8182C62.677 14.7226 61.7248 16.2909 59.8204 17.5232C57.944 18.7555 54.8913 19.5257 50.6623 19.8337C50.5783 20.2258 50.5083 20.6319 50.4523 21.052C50.4243 21.4441 50.4103 21.8222 50.4103 22.1863C50.4103 23.7826 50.8164 25.0149 51.6286 25.8831C52.4407 26.7233 53.477 27.1434 54.7373 27.1434C55.2694 27.1434 55.8015 27.0593 56.3336 26.8913C56.8657 26.7233 57.3698 26.4992 57.8459 26.2192C58.3501 25.9391 58.7982 25.645 59.1902 25.337C59.6103 25.0009 59.9744 24.6788 60.2825 24.3707L61.2907 25.421ZM55.9135 10.8857C54.9613 10.8857 54.0371 11.4039 53.1409 12.4401C52.2727 13.4763 51.5445 15.2267 50.9564 17.6913C53.0289 17.6352 54.6952 17.1731 55.9555 16.3049C57.2438 15.4368 57.888 14.3025 57.888 12.9022C57.888 12.3421 57.7339 11.866 57.4259 11.4739C57.1458 11.0818 56.6417 10.8857 55.9135 10.8857ZM72.1997 27.1434C72.7318 27.1434 73.2779 26.9053 73.8381 26.4292C74.4262 25.9531 74.9723 25.365 75.4764 24.6648C76.0085 23.9366 76.4846 23.1525 76.9047 22.3123C77.3528 21.4441 77.7309 20.6459 78.039 19.9178L79.5933 11.5999C79.2573 11.3758 78.9352 11.2218 78.6271 11.1378C78.3471 11.0258 77.969 10.9698 77.4929 10.9698C76.3726 10.9698 75.3644 11.3478 74.4682 12.104C73.572 12.8322 72.8158 13.7984 72.1997 15.0027C71.5836 16.1789 71.1074 17.5092 70.7714 18.9935C70.4633 20.4779 70.3093 21.9622 70.3093 23.4465C70.3093 24.7348 70.4633 25.673 70.7714 26.2612C71.0794 26.8493 71.5555 27.1434 72.1997 27.1434ZM77.4089 23.3205C77.0448 24.2167 76.5827 25.0989 76.0225 25.9671C75.4904 26.8073 74.8743 27.5635 74.1741 28.2356C73.474 28.9078 72.7038 29.4539 71.8636 29.874C71.0234 30.2941 70.1132 30.5041 69.133 30.5041C67.6767 30.5041 66.5144 29.972 65.6462 28.9078C64.778 27.8435 64.3439 26.2612 64.3439 24.1607C64.3439 21.9762 64.638 19.9458 65.2261 18.0693C65.8423 16.1649 66.6965 14.5125 67.7887 13.1122C68.909 11.6839 70.2533 10.5777 71.8216 9.7935C73.39 8.98131 75.1403 8.57522 77.0728 8.57522C77.8009 8.57522 78.4171 8.65924 78.9212 8.82728C79.4533 8.99532 80.0134 9.20537 80.6016 9.45742C81.3297 9.17736 82.1139 8.96731 82.9541 8.82728C83.7943 8.68725 84.8025 8.61723 85.9788 8.61723L82.45 27.1014H85.3906V28.5297C85.1106 28.7537 84.7325 28.9778 84.2564 29.2018C83.8083 29.4259 83.3042 29.6219 82.744 29.79C82.2119 29.958 81.6518 30.098 81.0637 30.21C80.5035 30.3221 79.9714 30.3781 79.4673 30.3781C78.4871 30.3781 77.7869 30.168 77.3668 29.7479C76.9468 29.3279 76.7367 28.8938 76.7367 28.4457C76.7367 27.9415 76.8067 27.2834 76.9467 26.4712C77.0868 25.631 77.2968 24.5808 77.5769 23.3205H77.4089ZM100.114 12.9862C99.5818 13.2103 98.9797 13.7144 98.3075 14.4985C97.6634 15.2827 97.1173 16.2769 96.6692 17.4812L93.9806 30H88.0993L91.8381 11.978L89.4436 11.4319V10.0035C89.9197 9.77949 90.4658 9.58345 91.0819 9.41541C91.7261 9.21937 92.3982 9.06533 93.0984 8.95331C93.8265 8.81328 94.5687 8.71526 95.3249 8.65924C96.081 8.57522 96.8092 8.51921 97.5093 8.49121L98.3495 8.99532L97.2573 14.2045H97.4253C98.2655 12.5801 99.2317 11.2218 100.324 10.1296C101.416 9.03733 102.691 8.49121 104.147 8.49121C104.539 8.49121 104.931 8.53322 105.323 8.61723C105.715 8.67325 106.079 8.79927 106.415 8.99532C106.471 9.58345 106.415 10.2276 106.247 10.9277C106.107 11.5999 105.911 12.244 105.659 12.8602C105.407 13.4763 105.113 14.0224 104.777 14.4985C104.441 14.9747 104.119 15.2967 103.811 15.4648L100.114 12.9862ZM121.395 18.0273C121.591 17.1591 121.759 16.389 121.899 15.7168C122.067 15.0447 122.151 14.3445 122.151 13.6163C122.151 13.1402 122.039 12.7342 121.815 12.3981C121.619 12.034 121.255 11.852 120.722 11.852C120.19 11.852 119.63 12.062 119.042 12.4821C118.482 12.8742 117.922 13.3783 117.362 13.9944C116.83 14.5826 116.325 15.2407 115.849 15.9689C115.401 16.697 115.037 17.3692 114.757 17.9853L112.237 30H106.439L110.052 11.978L107.574 11.4319L107.658 10.0035C108.05 9.8075 108.554 9.62546 109.17 9.45742C109.786 9.26138 110.458 9.09334 111.186 8.95331C111.915 8.81328 112.657 8.70125 113.413 8.61723C114.197 8.53322 114.939 8.49121 115.639 8.49121L116.48 8.99532L115.177 15.1287H115.387C115.891 14.2045 116.48 13.3363 117.152 12.5241C117.824 11.7119 118.538 11.0118 119.294 10.4236C120.05 9.83551 120.849 9.3734 121.689 9.03733C122.529 8.67325 123.383 8.49121 124.251 8.49121C125.428 8.49121 126.352 8.86929 127.024 9.62546C127.696 10.3816 128.032 11.3899 128.032 12.6501C128.032 13.2943 127.962 14.0364 127.822 14.8766C127.682 15.6888 127.514 16.501 127.318 17.3132L125.007 27.1014H128.032V28.5297C127.752 28.7537 127.374 28.9778 126.898 29.2018C126.45 29.4259 125.946 29.6219 125.386 29.79C124.853 29.958 124.293 30.098 123.705 30.21C123.117 30.3221 122.557 30.3781 122.025 30.3781C121.073 30.3781 120.372 30.196 119.924 29.832C119.504 29.4679 119.294 29.0478 119.294 28.5717C119.294 27.9836 119.364 27.3534 119.504 26.6813C119.644 26.0091 119.784 25.365 119.924 24.7488L121.395 18.0273Z" fill="#3D8FEF"/>
</svg>
