<svg width="48" height="48" viewBox="0 0 48 48" fill="none" xmlns="http://www.w3.org/2000/svg">
<path d="M23.83 47.66C36.9909 47.66 47.66 36.9909 47.66 23.83C47.66 10.6691 36.9909 0 23.83 0C10.6691 0 0 10.6691 0 23.83C0 36.9909 10.6691 47.66 23.83 47.66Z" fill="url(#paint0_linear_2274_37147)"/>
<path d="M30.3999 15.8594C29.5999 15.8594 28.95 16.5094 28.95 17.3094C28.95 18.1094 29.5999 18.7594 30.3999 18.7594C31.1999 18.7594 31.8499 18.1094 31.8499 17.3094C31.8499 16.5094 31.1999 15.8594 30.3999 15.8594Z" fill="white"/>
<path d="M23.9298 17.7188C20.5598 17.7188 17.8198 20.4588 17.8198 23.8288C17.8198 27.1988 20.5598 29.9388 23.9298 29.9388C27.2998 29.9388 30.0398 27.1988 30.0398 23.8288C30.0398 20.4588 27.2998 17.7188 23.9298 17.7188ZM23.9298 27.7388C21.7698 27.7388 20.0198 25.9788 20.0198 23.8288C20.0198 21.6788 21.7798 19.9188 23.9298 19.9188C26.0798 19.9188 27.8398 21.6788 27.8398 23.8288C27.8398 25.9788 26.0798 27.7388 23.9298 27.7388Z" fill="white"/>
<path d="M28.7799 36.2297H18.8799C14.7699 36.2297 11.4299 32.8897 11.4299 28.7797V18.8797C11.4299 14.7697 14.7699 11.4297 18.8799 11.4297H28.7799C32.8899 11.4297 36.2299 14.7697 36.2299 18.8797V28.7797C36.2299 32.8897 32.8899 36.2297 28.7799 36.2297ZM18.8799 13.7597C16.0599 13.7597 13.7599 16.0597 13.7599 18.8797V28.7797C13.7599 31.5997 16.0599 33.8997 18.8799 33.8997H28.7799C31.5999 33.8997 33.8999 31.5997 33.8999 28.7797V18.8797C33.8999 16.0597 31.5999 13.7597 28.7799 13.7597H18.8799Z" fill="white"/>
<defs>
<linearGradient id="paint0_linear_2274_37147" x1="6.98" y1="6.98" x2="40.68" y2="40.68" gradientUnits="userSpaceOnUse">
<stop stop-color="#FFE185"/>
<stop offset="0.21" stop-color="#FFBB36"/>
<stop offset="0.38" stop-color="#FF5176"/>
<stop offset="0.52" stop-color="#F63395"/>
<stop offset="0.74" stop-color="#A436D2"/>
<stop offset="1" stop-color="#5F4EED"/>
</linearGradient>
</defs>
</svg>
