<svg width="48" height="48" viewBox="0 0 48 48" fill="none" xmlns="http://www.w3.org/2000/svg">
<path d="M23.83 47.66C36.9909 47.66 47.66 36.9909 47.66 23.83C47.66 10.6691 36.9909 0 23.83 0C10.6691 0 0 10.6691 0 23.83C0 36.9909 10.6691 47.66 23.83 47.66Z" fill="url(#paint0_linear_2274_37178)"/>
<path d="M14.28 18.2509H18.38V31.4109H14.28V18.2509ZM16.33 11.7109C17.64 11.7109 18.7 12.7709 18.7 14.0809C18.7 15.3909 17.64 16.4509 16.33 16.4509C15.02 16.4509 13.95 15.3909 13.95 14.0809C13.95 12.7709 15.01 11.7109 16.33 11.7109Z" fill="white"/>
<path d="M20.9499 18.2519H24.8699V20.0519H24.9199C25.4699 19.0119 26.7999 17.9219 28.7899 17.9219C32.9299 17.9219 33.6999 20.6419 33.6999 24.1919V31.4119H29.6099V25.0119C29.6099 23.4819 29.5799 21.5219 27.4799 21.5219C25.3799 21.5219 25.0299 23.1819 25.0299 24.9019V31.4119H20.9399V18.2519H20.9499Z" fill="white"/>
<defs>
<linearGradient id="paint0_linear_2274_37178" x1="6.98" y1="6.98" x2="40.68" y2="40.68" gradientUnits="userSpaceOnUse">
<stop stop-color="#007BB8"/>
<stop offset="1" stop-color="#0044E9"/>
</linearGradient>
</defs>
</svg>
