<svg width="1422" height="774" viewBox="0 0 1422 774" fill="none" xmlns="http://www.w3.org/2000/svg">
<path d="M94.8187 631.076C88.4371 634.355 82.7636 638.858 78.1223 644.329C73.481 649.8 69.9628 656.132 67.7685 662.962C65.5741 669.793 64.7467 676.989 65.3334 684.14C65.9201 691.29 67.9094 698.255 71.1878 704.637C74.4662 711.018 78.9695 716.692 84.4405 721.333C89.9115 725.974 96.2431 729.493 103.074 731.687C109.905 733.881 117.101 734.709 124.251 734.122C131.401 733.535 138.366 731.546 144.748 728.268L97.9942 686.718L94.8187 631.076Z" fill="url(#paint0_linear_0_669)"/>
<path d="M1256 644.267C1266.04 645.236 1275.63 648.914 1283.73 654.907C1291.84 660.9 1298.17 668.983 1302.04 678.294C1305.91 687.604 1307.18 697.791 1305.71 707.766C1304.24 717.741 1300.09 727.129 1293.7 734.928C1287.31 742.727 1278.92 748.643 1269.43 752.044C1259.93 755.444 1249.7 756.202 1239.81 754.237C1229.92 752.271 1220.75 747.655 1213.28 740.883C1205.81 734.11 1200.32 725.435 1197.4 715.785L1220.48 708.795C1222.14 714.262 1225.25 719.177 1229.48 723.014C1233.71 726.852 1238.91 729.467 1244.51 730.58C1250.11 731.694 1255.91 731.265 1261.29 729.338C1266.67 727.411 1271.42 724.059 1275.04 719.641C1278.66 715.222 1281.02 709.903 1281.85 704.251C1282.68 698.6 1281.96 692.828 1279.77 687.553C1277.58 682.278 1273.99 677.698 1269.4 674.303C1264.8 670.907 1259.37 668.824 1253.69 668.275L1256 644.267Z" fill="url(#paint1_linear_0_669)"/>
<path d="M1299 84.0554C1298.55 59.9354 1311.33 52.0824 1337.34 60.4963C1363.34 68.9102 1376.12 61.0571 1375.67 36.9371C1375.22 12.8171 1388 4.96405 1414 13.3779" stroke="white" stroke-width="2"/>
<path d="M82.794 493.382C63.0811 496.882 54.9848 487.428 58.5049 465.02C62.0251 442.612 53.9287 433.158 34.2158 436.659C14.5029 440.159 6.40649 430.705 9.92664 408.297" stroke="#4C75F2" stroke-width="2"/>
<path d="M1319.8 588.298C1300.08 584.797 1291.99 594.251 1295.51 616.659C1299.03 639.067 1290.93 648.521 1271.22 645.021C1251.5 641.52 1243.41 650.974 1246.93 673.382" stroke="#4C75F2" stroke-width="2"/>
<path d="M1112.59 119.332C1119.68 133.734 1116.27 137.676 1102.35 131.158C1084.46 122.078 1081.05 126.019 1092.12 142.983C1102.76 160.446 1099.35 164.388 1081.89 154.809C1063.11 144.315 1059.7 148.257 1071.65 166.634C1083.5 185.141 1080.09 189.083 1061.42 178.46C1044.85 169.316 1041.44 173.258 1051.19 190.286C1061.1 207.122 1057.69 211.064 1040.96 202.111" stroke="white" stroke-width="2"/>
<path d="M74.0303 206.916L73.0026 214.708C72.9767 214.896 72.894 215.07 72.7658 215.209C72.6375 215.348 72.4698 215.445 72.2852 215.485C72.1006 215.526 71.9079 215.51 71.733 215.438C71.5581 215.366 71.4094 215.242 71.3069 215.083L67.0889 208.451C67.0156 208.336 66.9184 208.24 66.804 208.167C66.6896 208.094 66.5607 208.046 66.4263 208.028L58.6335 207C58.4462 206.974 58.2714 206.892 58.1325 206.764C57.9935 206.635 57.8972 206.468 57.8563 206.283C57.8155 206.098 57.8322 205.906 57.904 205.731C57.9759 205.556 58.0996 205.407 58.2585 205.305L64.8911 201.087C65.0053 201.013 65.1022 200.916 65.1752 200.802C65.2482 200.687 65.2954 200.559 65.3137 200.424L66.3414 192.631C66.3673 192.444 66.45 192.269 66.5783 192.13C66.7065 191.991 66.8742 191.895 67.0588 191.854C67.2435 191.813 67.4362 191.83 67.611 191.902C67.7859 191.974 67.9346 192.097 68.0371 192.256L72.2551 198.889C72.3284 199.003 72.4256 199.1 72.54 199.173C72.6544 199.246 72.7833 199.293 72.9177 199.312L80.7105 200.339C80.8978 200.365 81.0726 200.448 81.2116 200.576C81.3505 200.704 81.4468 200.872 81.4877 201.057C81.5285 201.241 81.5119 201.434 81.44 201.609C81.3681 201.784 81.2444 201.932 81.0855 202.035L74.4529 206.253C74.3387 206.326 74.2418 206.423 74.1688 206.538C74.0959 206.652 74.0486 206.781 74.0303 206.916Z" fill="#FFC27A"/>
<path d="M1305.03 183.916L1304 191.708C1303.98 191.896 1303.89 192.07 1303.77 192.209C1303.64 192.348 1303.47 192.445 1303.29 192.485C1303.1 192.526 1302.91 192.51 1302.73 192.438C1302.56 192.366 1302.41 192.242 1302.31 192.083L1298.09 185.451C1298.02 185.336 1297.92 185.24 1297.8 185.167C1297.69 185.094 1297.56 185.046 1297.43 185.028L1289.63 184C1289.45 183.974 1289.27 183.892 1289.13 183.764C1288.99 183.635 1288.9 183.468 1288.86 183.283C1288.82 183.098 1288.83 182.906 1288.9 182.731C1288.98 182.556 1289.1 182.407 1289.26 182.305L1295.89 178.087C1296.01 178.013 1296.1 177.916 1296.18 177.802C1296.25 177.687 1296.3 177.559 1296.31 177.424L1297.34 169.631C1297.37 169.444 1297.45 169.269 1297.58 169.13C1297.71 168.991 1297.87 168.895 1298.06 168.854C1298.24 168.813 1298.44 168.83 1298.61 168.902C1298.79 168.974 1298.93 169.097 1299.04 169.256L1303.26 175.889C1303.33 176.003 1303.43 176.1 1303.54 176.173C1303.65 176.246 1303.78 176.293 1303.92 176.312L1311.71 177.339C1311.9 177.365 1312.07 177.448 1312.21 177.576C1312.35 177.704 1312.45 177.872 1312.49 178.057C1312.53 178.241 1312.51 178.434 1312.44 178.609C1312.37 178.784 1312.24 178.932 1312.09 179.035L1305.45 183.253C1305.34 183.326 1305.24 183.423 1305.17 183.538C1305.1 183.652 1305.05 183.781 1305.03 183.916V183.916Z" fill="#FFC27A"/>
<defs>
<linearGradient id="paint0_linear_0_669" x1="134.192" y1="693.371" x2="53.1769" y2="597.065" gradientUnits="userSpaceOnUse">
<stop stop-color="#85D5FF"/>
<stop offset="1" stop-color="#B8FFF1"/>
</linearGradient>
<linearGradient id="paint1_linear_0_669" x1="1223.68" y1="771.29" x2="1325.7" y2="693.675" gradientUnits="userSpaceOnUse">
<stop stop-color="#75D0FF"/>
<stop offset="1" stop-color="#B8FFF1"/>
</linearGradient>
</defs>
</svg>
