<svg width="48" height="48" viewBox="0 0 48 48" fill="none" xmlns="http://www.w3.org/2000/svg">
<path d="M23.83 47.66C36.9909 47.66 47.66 36.9909 47.66 23.83C47.66 10.6691 36.9909 0 23.83 0C10.6691 0 0 10.6691 0 23.83C0 36.9909 10.6691 47.66 23.83 47.66Z" fill="url(#paint0_linear_2274_37123)"/>
<path d="M35.41 20.8105C35.41 18.0005 33.14 15.7305 30.33 15.7305H17.34C14.53 15.7305 12.26 18.0005 12.26 20.8105V26.8505C12.26 29.6605 14.53 31.9305 17.34 31.9305H30.33C33.14 31.9305 35.41 29.6605 35.41 26.8505V20.8105ZM27.77 24.2805L21.95 27.1605C21.72 27.2805 20.95 27.1205 20.95 26.8605V20.9405C20.95 20.6805 21.73 20.5105 21.96 20.6405L27.54 23.6705C27.77 23.8005 28.02 24.1405 27.78 24.2705L27.77 24.2805Z" fill="white"/>
<defs>
<linearGradient id="paint0_linear_2274_37123" x1="6.98" y1="6.98" x2="40.68" y2="40.68" gradientUnits="userSpaceOnUse">
<stop stop-color="#FF0000"/>
<stop offset="1" stop-color="#9B0000"/>
</linearGradient>
</defs>
</svg>
